<?xml version="1.0" standalone="no"?>
<!DOCTYPE svg PUBLIC "-//W3C//DTD SVG 20010904//EN"
 "http://www.w3.org/TR/2001/REC-SVG-20010904/DTD/svg10.dtd">
<svg version="1.0" xmlns="http://www.w3.org/2000/svg"
 width="1280.000000pt" height="1280.000000pt" viewBox="0 0 1280.000000 1280.000000"
 preserveAspectRatio="xMidYMid meet">
<g transform="translate(0.000000,1280.000000) scale(0.100000,-0.100000)"
fill="#000000" stroke="none">
<path d="M6210 12797 c-3 -3 -81 -10 -175 -16 -1138 -75 -2150 -403 -3085
-1000 -388 -248 -710 -510 -1066 -865 -262 -263 -447 -476 -632 -727 -711
-970 -1135 -2112 -1222 -3289 -6 -80 -15 -192 -20 -250 -13 -134 -13 -366 0
-500 5 -58 14 -170 20 -250 103 -1394 677 -2727 1626 -3780 845 -937 1957
-1608 3176 -1916 353 -89 715 -147 1073 -174 83 -6 194 -15 248 -21 125 -12
369 -12 494 0 54 6 166 15 248 21 1069 79 2103 432 3010 1028 828 543 1516
1269 2025 2137 96 164 274 518 348 693 274 647 441 1331 492 2012 6 80 15 192
20 250 13 134 13 366 0 500 -5 58 -14 170 -20 250 -80 1078 -444 2131 -1051
3042 -664 996 -1611 1799 -2699 2288 -608 274 -1279 455 -1940 524 -305 32
-854 59 -870 43z m510 -547 c844 -52 1587 -251 2320 -621 1385 -698 2438
-1921 2925 -3396 143 -431 232 -875 277 -1373 16 -183 16 -741 0 -920 -73
-798 -264 -1485 -601 -2159 -856 -1708 -2493 -2896 -4376 -3175 -318 -47 -504
-60 -865 -60 -454 0 -747 29 -1170 114 -2053 416 -3735 1911 -4396 3908 -411
1244 -386 2639 69 3862 679 1825 2208 3192 4092 3659 551 136 1175 194 1725
161z"/>
<path d="M3825 10040 c-144 -16 -257 -73 -363 -185 -77 -80 -126 -171 -147
-272 -22 -102 -22 -6264 0 -6366 23 -111 69 -192 160 -282 87 -88 162 -134
266 -162 60 -17 194 -18 2284 -18 2127 0 2223 1 2280 18 146 45 264 134 344
257 70 108 84 167 89 378 3 134 1 182 -8 182 -6 0 -56 -19 -111 -41 l-99 -41
0 -97 c0 -204 -63 -323 -210 -398 l-55 -28 -2235 0 -2235 0 -63 34 c-78 42
-144 114 -174 189 l-23 57 0 3135 0 3135 23 57 c32 80 99 150 180 190 l67 33
2210 3 c2037 2 2213 1 2260 -14 127 -43 216 -141 244 -272 8 -38 11 -665 11
-2258 0 -1213 3 -2204 8 -2202 4 2 53 52 110 111 l102 108 -2 2142 -3 2142
-27 74 c-68 185 -213 321 -404 378 -56 17 -186 18 -2234 19 -1196 1 -2206 -2
-2245 -6z"/>
<path d="M4223 8920 c-28 -11 -63 -66 -63 -98 0 -31 25 -77 52 -96 20 -14 207
-16 1816 -16 l1794 0 29 29 c39 40 42 115 5 158 l-24 28 -1794 2 c-1053 1
-1802 -2 -1815 -7z"/>
<path d="M4226 8125 c-74 -39 -82 -131 -16 -190 22 -20 38 -20 1774 -23 963
-2 1770 0 1793 3 79 11 120 85 89 159 -30 71 109 66 -1848 66 -1555 0 -1766
-2 -1792 -15z"/>
<path d="M4235 7310 c-29 -11 -61 -51 -69 -82 -8 -33 12 -85 44 -113 22 -20
38 -20 1774 -23 963 -2 1770 0 1793 3 78 11 120 85 90 157 -31 74 120 68
-1849 67 -969 0 -1772 -4 -1783 -9z"/>
<path d="M4211 6504 c-61 -43 -60 -147 2 -184 31 -20 65 -20 1805 -20 1968 0
1818 -5 1848 66 20 48 9 98 -28 129 l-30 25 -1787 0 c-1635 0 -1789 -1 -1810
-16z"/>
<path d="M10034 6456 c-24 -24 -44 -48 -44 -53 0 -11 714 -685 731 -692 14 -4
79 58 90 87 5 13 6 34 3 48 -6 24 -628 619 -671 643 -38 20 -64 12 -109 -33z"/>
<path d="M9125 5491 c-418 -445 -760 -813 -760 -819 0 -14 720 -692 734 -692
19 0 1540 1624 1533 1635 -16 25 -724 685 -735 685 -7 0 -354 -364 -772 -809z"/>
<path d="M4213 5710 c-62 -37 -63 -141 -2 -184 21 -15 175 -16 1810 -16 l1787
0 30 25 c37 31 48 81 28 129 -30 71 120 66 -1848 66 -1740 0 -1774 0 -1805
-20z"/>
<path d="M4213 4890 c-62 -37 -63 -141 -2 -184 21 -15 175 -16 1810 -16 l1787
0 30 25 c37 31 48 81 28 129 -30 71 120 66 -1848 66 -1740 0 -1774 0 -1805
-20z"/>
<path d="M8218 4524 c-41 -50 -44 -61 -27 -108 10 -28 -4 -74 -139 -462 -82
-237 -153 -445 -157 -463 -9 -43 9 -64 48 -55 16 3 217 84 446 179 230 95 424
175 432 176 8 2 27 0 43 -5 39 -10 73 7 116 56 l34 40 -44 42 c-25 23 -188
176 -364 341 -175 165 -326 301 -335 303 -9 1 -32 -17 -53 -44z"/>
<path d="M4245 4113 c-49 -12 -89 -80 -79 -132 7 -35 36 -68 71 -82 15 -5 712
-9 1784 -9 1954 0 1815 -5 1845 66 29 69 -8 144 -77 158 -37 7 -3514 6 -3544
-1z"/>
</g>
</svg>
